<mxfile host="Electron" modified="2024-02-19T12:29:17.729Z" agent="Mozilla/5.0 (Macintosh; Intel Mac OS X 10_15_7) AppleWebKit/537.36 (KHTML, like Gecko) draw.io/23.1.5 Chrome/120.0.6099.109 Electron/28.1.0 Safari/537.36" etag="1X_2GuBqxCA-ND3Ldlzf" version="23.1.5" type="device">
  <diagram name="Page-1" id="CbtIC47lDX5ox28n0rnE">
    <mxGraphModel dx="1242" dy="805" grid="1" gridSize="10" guides="1" tooltips="1" connect="1" arrows="1" fold="1" page="1" pageScale="1" pageWidth="670" pageHeight="340" math="0" shadow="0">
      <root>
        <mxCell id="0" />
        <mxCell id="1" parent="0" />
        <mxCell id="OtgMchw7-mbG7GYqD4hM-1" value="" style="triangle;whiteSpace=wrap;html=1;rotation=90;fillColor=#dae8fc;strokeColor=#6c8ebf;" parent="1" vertex="1">
          <mxGeometry x="40" y="100" width="240" height="120" as="geometry" />
        </mxCell>
        <mxCell id="OtgMchw7-mbG7GYqD4hM-4" value="" style="shape=flexArrow;endArrow=classic;html=1;rounded=0;width=18.26086956521739;startSize=12.457971014492752;endSize=12.942028985507246;fillColor=#f5f5f5;strokeColor=#666666;" parent="1" edge="1">
          <mxGeometry width="50" height="50" relative="1" as="geometry">
            <mxPoint x="220" y="159.69" as="sourcePoint" />
            <mxPoint x="300" y="159.69" as="targetPoint" />
          </mxGeometry>
        </mxCell>
        <mxCell id="OtgMchw7-mbG7GYqD4hM-8" value="" style="triangle;whiteSpace=wrap;html=1;rotation=90;fillColor=#d5e8d4;strokeColor=#82b366;" parent="1" vertex="1">
          <mxGeometry x="397.5" y="200" width="5" height="5" as="geometry" />
        </mxCell>
        <mxCell id="OtgMchw7-mbG7GYqD4hM-14" value="" style="verticalLabelPosition=middle;verticalAlign=middle;html=1;shape=trapezoid;perimeter=trapezoidPerimeter;whiteSpace=wrap;size=0.44999999999999996;arcSize=10;flipV=1;labelPosition=center;align=center;fillColor=#d5e8d4;strokeColor=#82b366;" parent="1" vertex="1">
          <mxGeometry x="300" y="40" width="200" height="80" as="geometry" />
        </mxCell>
        <mxCell id="OtgMchw7-mbG7GYqD4hM-15" value="" style="verticalLabelPosition=middle;verticalAlign=middle;html=1;shape=trapezoid;perimeter=trapezoidPerimeter;whiteSpace=wrap;size=0.375;arcSize=10;flipV=1;labelPosition=center;align=center;fillColor=#d5e8d4;strokeColor=#82b366;" parent="1" vertex="1">
          <mxGeometry x="390" y="120" width="20" height="80" as="geometry" />
        </mxCell>
        <mxCell id="OtgMchw7-mbG7GYqD4hM-17" value="ALARP&lt;br&gt;region" style="text;html=1;align=center;verticalAlign=middle;resizable=0;points=[];autosize=1;strokeColor=none;fillColor=none;" parent="1" vertex="1">
          <mxGeometry x="40" y="140" width="60" height="40" as="geometry" />
        </mxCell>
        <mxCell id="OtgMchw7-mbG7GYqD4hM-20" value="Negligible risk" style="text;html=1;align=center;verticalAlign=middle;resizable=0;points=[];autosize=1;strokeColor=none;fillColor=none;fontSize=12;" parent="1" vertex="1">
          <mxGeometry x="210" y="280" width="100" height="30" as="geometry" />
        </mxCell>
        <mxCell id="OtgMchw7-mbG7GYqD4hM-21" value="Unacceptable region" style="text;html=1;align=center;verticalAlign=middle;resizable=0;points=[];autosize=1;strokeColor=none;fillColor=none;fontSize=12;" parent="1" vertex="1">
          <mxGeometry x="500" y="65" width="130" height="30" as="geometry" />
        </mxCell>
        <mxCell id="OtgMchw7-mbG7GYqD4hM-22" value="Tolerable region&lt;br&gt;if&amp;nbsp;impractical" style="text;html=1;align=center;verticalAlign=middle;resizable=0;points=[];autosize=1;strokeColor=none;fillColor=none;fontSize=12;" parent="1" vertex="1">
          <mxGeometry x="510" y="140" width="110" height="40" as="geometry" />
        </mxCell>
        <mxCell id="OtgMchw7-mbG7GYqD4hM-23" value="Acceptable region" style="text;html=1;align=center;verticalAlign=middle;resizable=0;points=[];autosize=1;strokeColor=none;fillColor=none;fontSize=12;" parent="1" vertex="1">
          <mxGeometry x="505" y="225" width="120" height="30" as="geometry" />
        </mxCell>
        <mxCell id="OtgMchw7-mbG7GYqD4hM-2" value="" style="endArrow=none;html=1;rounded=0;" parent="1" edge="1">
          <mxGeometry width="50" height="50" relative="1" as="geometry">
            <mxPoint x="40" y="120" as="sourcePoint" />
            <mxPoint x="630" y="120" as="targetPoint" />
          </mxGeometry>
        </mxCell>
        <mxCell id="OtgMchw7-mbG7GYqD4hM-5" value="" style="endArrow=none;html=1;rounded=0;" parent="1" edge="1">
          <mxGeometry width="50" height="50" relative="1" as="geometry">
            <mxPoint x="40" y="200" as="sourcePoint" />
            <mxPoint x="630" y="200" as="targetPoint" />
          </mxGeometry>
        </mxCell>
      </root>
    </mxGraphModel>
  </diagram>
</mxfile>
